<svg id="Capa_1" enable-background="new 0 0 512 512" height="512" viewBox="0 0 512 512" width="512" xmlns="http://www.w3.org/2000/svg" xmlns:xlink="http://www.w3.org/1999/xlink"><linearGradient id="SVGID_1_" gradientUnits="userSpaceOnUse" x1="256" x2="256" y1="512" y2="0"><stop offset="0" stop-color="#fd5900"/><stop offset="1" stop-color="#ffde00"/></linearGradient><g><g><g><path d="m316 241c8.284 0 15-6.716 15-15s-6.716-15-15-15h-120c-8.284 0-15 6.716-15 15s6.716 15 15 15c8.271 0 15 6.729 15 15v90c0 8.271-6.729 15-15 15-8.284 0-15 6.716-15 15s6.716 15 15 15h120c8.284 0 15-6.716 15-15s-6.716-15-15-15c-8.271 0-15-6.729-15-15v-90c0-8.271 6.729-15 15-15zm-42.42 120h-35.16c1.665-4.695 2.58-9.742 2.58-15v-90c0-5.258-.915-10.305-2.58-15h35.16c-1.665 4.695-2.58 9.742-2.58 15v90c0 5.258.915 10.305 2.58 15zm-17.58-180c24.813 0 45-20.187 45-45s-20.187-45-45-45-45 20.187-45 45 20.187 45 45 45zm0-60c8.271 0 15 6.729 15 15s-6.729 15-15 15-15-6.729-15-15 6.729-15 15-15zm0-121c-140.959 0-256 115.049-256 256 0 140.96 115.049 256 256 256 140.959 0 256-115.049 256-256 0-140.96-115.049-256-256-256zm0 482c-124.617 0-226-101.383-226-226s101.383-226 226-226 226 101.383 226 226-101.383 226-226 226z" fill="url(#SVGID_1_)"/></g></g></g></svg>