<svg id="color" enable-background="new 0 0 24 24" height="512" viewBox="0 0 24 24" width="512" xmlns="http://www.w3.org/2000/svg"><path d="m24 8.65v1.59l-11.07 5.78c-.58.3-1.279.3-1.859 0l-11.071-5.78v-1.59c0-.83.46-1.59 1.19-1.98l9.75-5.21c.659-.35 1.46-.35 2.119 0l9.75 5.21c.731.39 1.191 1.15 1.191 1.98z" fill="#2196f3"/><path d="m21 2.75c0-1.519-1.231-2.75-2.75-2.75h-12.5c-1.519 0-2.75 1.231-2.75 2.75v17.32c0 .414.336.75.75.75h16.5c.414 0 .75-.336.75-.75z" fill="#eceff1"/><path d="m24 10.24v10.51c0 1.24-1.01 2.25-2.25 2.25h-19.5c-1.24 0-2.25-1.01-2.25-2.25v-10.51l11.07 5.78c.58.3 1.279.3 1.859 0z" fill="#64b5f6"/><path d="m12 0h-6.25c-1.519 0-2.75 1.231-2.75 2.75v2.953 6.104l8.07 4.213c.29.15.61.225.93.225z" fill="#cdd0d2"/><path d="m0 10.24v10.51c0 1.24 1.01 2.25 2.25 2.25h9.75v-6.755c-.32 0-.64-.075-.93-.225l-8.07-4.213z" fill="#579ed6"/><path d="m13.462 9.426c-.324-.258-.377-.73-.118-1.054l2.14-2.68c.258-.324.73-.376 1.054-.118s.377.73.118 1.054l-2.14 2.68c-.256.321-.727.378-1.054.118z" fill="#607d8b"/><path d="m11.336 10.001-3.34-1.66c-.371-.184-.522-.634-.337-1.005s.635-.522 1.005-.337l3.34 1.66c.371.184.522.634.337 1.005-.185.374-.638.521-1.005.337z" fill="#607d8b"/><path d="m3 5.703-1.81.967c-.73.39-1.19 1.15-1.19 1.98v1.59l3 1.566z" fill="#1d83d4"/><path d="m7.659 7.336c-.185.371-.034.821.337 1.005l3.34 1.66c.107.053.221.079.334.079.274 0 .54-.151.672-.416z" fill="#546d79"/><path d="m16.538 5.574-3.075 3.852c.139.111.304.164.467.164.221 0 .439-.097.587-.282l2.14-2.68c.258-.324.204-.795-.119-1.054z" fill="#546d79"/><g fill="#2196f3"><path d="m17 7c-1.103 0-2-.897-2-2s.897-2 2-2 2 .897 2 2-.897 2-2 2z"/><path d="m13 12c-1.103 0-2-.897-2-2s.897-2 2-2 2 .897 2 2-.897 2-2 2z"/><path d="m7 9c-1.103 0-2-.897-2-2s.897-2 2-2 2 .897 2 2-.897 2-2 2z"/></g><path d="m7 5c-1.103 0-2 .897-2 2s.897 2 2 2z" fill="#1d83d4"/><path d="m13 8c-1.103 0-2 .897-2 2s.897 2 2 2z" fill="#1d83d4"/><path d="m17 3c-1.103 0-2 .897-2 2s.897 2 2 2z" fill="#1d83d4"/></svg>