<svg id="Layer_1" enable-background="new 0 0 64 64" height="512" viewBox="0 0 64 64" width="512" xmlns="http://www.w3.org/2000/svg"><g><g><g><circle cx="13" cy="32" fill="#353744" r="1"/></g><g><path d="m19 21c0-3.737-3.416-6.675-7.295-5.864-2.286.478-4.125 2.34-4.582 4.631-.499 2.503.562 4.8 2.384 6.105.976.699 1.493 1.878 1.493 3.079v.049h4v-.184c0-1.214.638-2.299 1.607-3.029 1.453-1.093 2.393-2.829 2.393-4.787z" fill="#f68820"/></g><g><path d="m15 29h-4v2c0 .552.448 1 1 1h2c.552 0 1-.448 1-1z" fill="#b3b4b6"/></g><g><path d="m15 29h-2v3h1c.552 0 1-.448 1-1z" fill="#808080"/></g><g><path d="m13 18c0-1.215-.726-2.257-1.765-2.728-1.886.568-3.393 2.078-3.963 3.962.471 1.04 1.512 1.766 2.728 1.766 1.657 0 3-1.343 3-3z" fill="#fbbe18"/></g><g><path d="m11 30h2v1h-2z" fill="#dbdee3"/></g><g><path d="m13 30h2v1h-2z" fill="#b3b4b6"/></g></g><g><g><path d="m29.974 27.5c-1.105 0-2-.895-2-2v-4.5h8v4.5c0 1.105-.895 2-2 2z" fill="#dbdee3"/></g><g><path d="m31.974 21v6.5h2c1.105 0 2-.895 2-2v-4.5z" fill="#808080"/></g><g><path d="m27.974 21h4v1h-4z" fill="#b3b4b6"/></g><g><path d="m31.974 22h4v1h-4z" fill="#b3b4b6"/></g><g><path d="m31.974 24h4v1h-4z" fill="#b3b4b6"/></g><g><path d="m27.974 23h4v1h-4z" fill="#b3b4b6"/></g><g><path d="m31.974 25h-4v.5c0 1.105.895 2 2 2h2z" fill="#b3b4b6"/></g><g><path d="m39.974 10c0-4.719-4.086-8.484-8.913-7.949-3.517.389-6.443 3.17-6.987 6.667-.412 2.646.477 5.092 2.123 6.808 1.152 1.201 1.777 2.81 1.777 4.474v1h8v-1c0-1.65.6-3.26 1.748-4.444 1.393-1.438 2.252-3.396 2.252-5.556z" fill="#f68820"/></g><g><path d="m24.327 7.644c.627 1.389 2.024 2.356 3.647 2.356 2.209 0 4-1.791 4-4 0-1.622-.966-3.017-2.353-3.645-2.524.776-4.517 2.765-5.294 5.289z" fill="#fbbe18"/></g><g><path d="m31.974 29.5c-1.105 0-2-.895-2-2h4c0 1.105-.896 2-2 2z" fill="#353744"/></g></g><g><path d="m14 12v-2c0-.552-.448-1-1-1-.552 0-1 .448-1 1v2c0 .552.448 1 1 1 .552 0 1-.448 1-1z" fill="#fbbe18"/></g><g><path d="m5.706 15.634-1.732-1c-.479-.276-1.09-.112-1.366.366-.276.478-.112 1.09.366 1.366l1.732 1c.478.276 1.09.112 1.366-.366.276-.478.112-1.09-.366-1.366z" fill="#fbbe18"/></g><g><path d="m4.706 24.634-1.732 1c-.479.276-.642.888-.366 1.366.276.478.888.642 1.366.366l1.732-1c.478-.276.642-.888.366-1.366-.276-.478-.888-.642-1.366-.366z" fill="#fbbe18"/></g><g><path d="m20.294 26.366 1.732 1c.478.276 1.09.112 1.366-.366.276-.478.112-1.09-.366-1.366l-1.732-1c-.478-.276-1.09-.112-1.366.366-.276.478-.112 1.09.366 1.366z" fill="#fbbe18"/></g><g><path d="m21.294 17.366 1.732-1c.478-.276.642-.888.366-1.366-.276-.478-.888-.642-1.366-.366l-1.732 1c-.478.276-.642.888-.366 1.366.276.478.888.642 1.366.366z" fill="#fbbe18"/></g><g><g><circle cx="51" cy="32" fill="#353744" r="1"/></g><g><path d="m57 21c0-3.737-3.416-6.675-7.295-5.864-2.286.478-4.125 2.34-4.582 4.631-.499 2.503.562 4.8 2.384 6.105.976.699 1.493 1.878 1.493 3.079v.049h4v-.184c0-1.214.638-2.299 1.607-3.029 1.453-1.093 2.393-2.829 2.393-4.787z" fill="#f68820"/></g><g><path d="m53 29h-4v2c0 .552.448 1 1 1h2c.552 0 1-.448 1-1z" fill="#b3b4b6"/></g><g><path d="m53 29h-2v3h1c.552 0 1-.448 1-1z" fill="#808080"/></g><g><path d="m51 18c0-1.215-.726-2.257-1.765-2.728-1.886.568-3.393 2.078-3.963 3.962.471 1.04 1.512 1.766 2.728 1.766 1.657 0 3-1.343 3-3z" fill="#fbbe18"/></g><g><path d="m49 30h2v1h-2z" fill="#dbdee3"/></g><g><path d="m51 30h2v1h-2z" fill="#b3b4b6"/></g></g><g><path d="m52 12v-2c0-.552-.448-1-1-1-.552 0-1 .448-1 1v2c0 .552.448 1 1 1 .552 0 1-.448 1-1z" fill="#fbbe18"/></g><g><path d="m43.706 15.634-1.732-1c-.478-.276-1.09-.112-1.366.366-.276.478-.112 1.09.366 1.366l1.732 1c.478.276 1.09.112 1.366-.366.276-.478.112-1.09-.366-1.366z" fill="#fbbe18"/></g><g><path d="m42.706 24.634-1.732 1c-.478.276-.642.888-.366 1.366.276.478.888.642 1.366.366l1.732-1c.478-.276.642-.888.366-1.366-.276-.478-.888-.642-1.366-.366z" fill="#fbbe18"/></g><g><path d="m58.294 26.366 1.732 1c.478.276 1.09.112 1.366-.366.276-.478.112-1.09-.366-1.366l-1.732-1c-.478-.276-1.09-.112-1.366.366-.276.478-.112 1.09.366 1.366z" fill="#fbbe18"/></g><g><path d="m59.294 17.366 1.732-1c.478-.276.642-.888.366-1.366-.276-.478-.888-.642-1.366-.366l-1.732 1c-.478.276-.642.888-.366 1.366.276.478.888.642 1.366.366z" fill="#fbbe18"/></g><g><path d="m22.947 3.634-1.732-1c-.478-.276-1.09-.112-1.366.366-.276.478-.112 1.09.366 1.366l1.732 1c.478.276 1.09.112 1.366-.366.276-.478.113-1.09-.366-1.366z" fill="#fbbe18"/></g><g><path d="m42 5.366 1.732-1c.478-.276.642-.888.366-1.366-.276-.478-.888-.642-1.366-.366l-1.732 1c-.478.276-.642.888-.366 1.366.276.478.888.642 1.366.366z" fill="#fbbe18"/></g><g><g><path d="m44.974 35.5h-17c3.033 0 5.5 2.467 5.5 5.5s-2.467 5.5-5.5 5.5h17c3.038 0 5.5-2.462 5.5-5.5 0-3.038-2.463-5.5-5.5-5.5z" fill="#f68820"/></g></g><g><path d="m34.974 35.5h-2.5c3.038 0 5.5 2.462 5.5 5.5 0 3.038-2.462 5.5-5.5 5.5h2.5c3.038 0 5.5-2.462 5.5-5.5 0-3.038-2.463-5.5-5.5-5.5z" fill="#5c76b2"/></g><g><path d="m31.474 41c0-1.93-1.57-3.5-3.5-3.5h-14.5v7h14.5c1.929 0 3.5-1.57 3.5-3.5z" fill="#dbdee3"/></g><g><g><path d="m11.474 55c-1.654 0-3 1.121-3 2.5s1.346 2.5 3 2.5h28v-5z" fill="#dbdee3"/></g><g><path d="m48.474 53h-9c.552 0 1 .448 1 1s-.448 1-1 1h9c.552 0 1-.448 1-1s-.448-1-1-1z" fill="#f68820"/></g><g><path d="m48.474 60h-9c.552 0 1 .448 1 1s-.448 1-1 1h9c.552 0 1-.448 1-1s-.448-1-1-1z" fill="#f68820"/></g><g><path d="m39.474 62h-28c-2.757 0-5-2.019-5-4.5s2.243-4.5 5-4.5h28c.552 0 1 .448 1 1s-.448 1-1 1h-28c-1.654 0-3 1.121-3 2.5s1.346 2.5 3 2.5h28c.552 0 1 .448 1 1s-.448 1-1 1z" fill="#fbbe18"/></g><g><path d="m39.474 55h9v5h-9z" fill="#b3b4b6"/></g></g><g><path d="m55.974 53h-38c-.828 0-1.5-.672-1.5-1.5v-3.5c0-.828.672-1.5 1.5-1.5h38c.828 0 1.5.672 1.5 1.5v3.5c0 .828-.672 1.5-1.5 1.5z" fill="#55525b"/></g><g><path d="m20.974 46.5h4v6.5h-4z" fill="#353744"/></g><g><path d="m48.474 46.5h1.5v6.5h-1.5z" fill="#353744"/></g><g><path d="m27.974 46.5h-14.5c-.552 0-1-.448-1-1s.448-1 1-1h14.5c1.93 0 3.5-1.57 3.5-3.5s-1.57-3.5-3.5-3.5h-14.5c-.552 0-1-.448-1-1s.448-1 1-1h14.5c3.033 0 5.5 2.467 5.5 5.5s-2.468 5.5-5.5 5.5z" fill="#fbbe18"/></g><g><circle cx="31.974" cy="31.5" fill="#6fa4d8" r=".5"/></g><g><circle cx="31.974" cy="34" fill="#6fa4d8" r=".5"/></g><g><circle cx="7.474" cy="30.5" fill="#6fa4d8" r=".5"/></g><g><circle cx="9.974" cy="30.5" fill="#6fa4d8" r=".5"/></g><g><circle cx="7.474" cy="33" fill="#6fa4d8" r=".5"/></g><g><circle cx="7.474" cy="35.5" fill="#6fa4d8" r=".5"/></g><g><circle cx="7.474" cy="38" fill="#6fa4d8" r=".5"/></g><g><circle cx="7.474" cy="40.5" fill="#6fa4d8" r=".5"/></g><g><circle cx="7.474" cy="43" fill="#6fa4d8" r=".5"/></g><g><circle cx="7.474" cy="45.5" fill="#6fa4d8" r=".5"/></g><g><circle cx="7.474" cy="48" fill="#6fa4d8" r=".5"/></g><g><circle cx="7.474" cy="50.5" fill="#6fa4d8" r=".5"/></g><g><circle cx="7.474" cy="53" fill="#6fa4d8" r=".5"/></g><g><circle cx="56.474" cy="30.5" fill="#6fa4d8" r=".5"/></g><g><circle cx="53.974" cy="30.5" fill="#6fa4d8" r=".5"/></g><g><circle cx="56.474" cy="33" fill="#6fa4d8" r=".5"/></g><g><circle cx="56.474" cy="35.5" fill="#6fa4d8" r=".5"/></g><g><circle cx="56.474" cy="38" fill="#6fa4d8" r=".5"/></g><g><circle cx="56.474" cy="40.5" fill="#6fa4d8" r=".5"/></g><g><circle cx="56.474" cy="43" fill="#6fa4d8" r=".5"/></g><g><circle cx="56.474" cy="45.5" fill="#6fa4d8" r=".5"/></g></g></svg>